<svg xmlns="http://www.w3.org/2000/svg" viewBox="0 0 1315.98535 1315.98529"><defs><style>.a{fill:#fff;}</style></defs><path class="a" d="M1047.57375,486.40872c-2.87518,37.7527,13.1991,52.97545,35.89326,33.93841,22.6793-19.0214,43.36153-65.0595,46.22889-102.85443,2.82592-37.77616-13.24444-52.95669-35.89716-33.97673C1071.11944,402.59054,1050.41453,448.64038,1047.57375,486.40872Z" transform="translate(-340.95232 -121.64535)"/><path class="a" d="M1128.88269,596.66966c16.319-59.8479,127.12654-125.47587,300.06133-200.87493-56.95008,8.484-381.04967,117.92783-451.19881,245.787-8.21265,15.07731.31356,28.36085,27.55546,35.32088,187.22544,48.15324,242.86573,123.69305,28.81829,159.8506-233.10324,39.27983-576.01388,106.04239-430.23738,347.18317,24.56142-91.64928,115.607-161.99233,115.607-161.99233s82.25977-85.76911,384.53864-164.99341c25.169-6.6058,48.54656-13.6229,70.096-20.42654,65.22762-24.93206,70.87086-105.3707-11.8135-150.092C1120.57461,663.856,1122.36524,620.41865,1128.88269,596.66966Z" transform="translate(-340.95232 -121.64535)"/><path class="a" d="M1261.93084,1134.75963s-249.88437-172.67516-121.23856-273.86094C1128.76071,981.3733,1261.93084,1134.75963,1261.93084,1134.75963Z" transform="translate(-340.95232 -121.64535)"/><path class="a" d="M998.945,121.64535c-363.39935,0-657.99268,294.59339-657.99268,657.99268S635.54565,1437.63065,998.945,1437.63065s657.99268-294.59333,657.99268-657.99262S1362.34429,121.64535,998.945,121.64535Zm0,1267.81922c-336.79791,0-609.82654-273.02863-609.82654-609.82654S662.14709,169.81149,998.945,169.81149,1608.77154,442.84012,1608.77154,779.638,1335.74285,1389.46457,998.945,1389.46457Z" transform="translate(-340.95232 -121.64535)"/></svg>