<svg xmlns="http://www.w3.org/2000/svg" viewBox="0 0 959.694 63.638"><defs><style>.a{fill:#b7121c}.b{fill:#6d6e71}</style></defs><path class="a" d="M137.67831 19.7061h-27.2841l2.2089-7.209c.7412-2.7236-.5888-4.8037-2.9482-4.8037h-3.394c-2.3506 0-5.1587 2.2363-5.8956 4.8037l-3.2407 10.5713c-.8896 2.5635.4375 4.8066 2.9483 4.8066h26.0986c4.8691 0 7.5215 4.3257 5.8984 9.773l-5.0122 16.0156c-1.6225 5.4473-7.0805 9.7754-11.9443 9.7754H66.15391c-5.0151 0-7.6675-4.3281-5.8984-9.7754l3.102-9.9316h27.2749L88.42 50.9409c-.8867 2.7227.4468 4.8086 2.9512 4.8086h3.2485a6.90659 6.90659 0 006.0415-4.8086l3.2491-10.5722c.8784-2.5625-.4439-4.8067-2.9541-4.8067H74.85511c-5.0147 0-7.6738-4.3208-6.044-9.7729L73.818 9.7735C75.59391 4.3262 80.90151 0 85.91561 0h48.9576c4.8686 0 7.521 4.3262 5.9003 9.7735zM201.08361 63.439h-18.2871c-5.0107 0-7.665-4.3281-5.9004-9.7754l12.834-41.1665c.7383-2.7236-.4356-4.8037-2.9473-4.8037h-7.8232L161.55771 63.439h-27.2734L154.046 0h57.9526c4.8653 0 7.5118 4.3262 5.8985 9.7735zM278.4996 63.439H220.69491c-5.0107 0-7.6631-4.3281-6.04-9.7754l5.0088-16.0156c1.7656-5.4473 7.084-9.773 12.0967-9.773H257.8541c2.5108 0 5.1631-2.2431 6.0527-4.8066l3.2393-10.5713c.7441-2.5674-.5869-4.8037-2.9492-4.8037h-3.39059a6.57058 6.57058 0 00-5.89651 4.8037l-2.208 7.209H225.26821l3.1025-9.9326C230.12951 4.3262 235.44791 0 240.45471 0H289.4186c4.8672 0 7.5195 4.3262 5.8886 9.7735L278.4996 63.439M252.11 35.562c-2.3604 0-5.1631 2.2442-5.9024 4.8067l-3.248 10.5722c-.8819 2.7227.4433 4.8086 2.9502 4.8086h7.667l6.3506-20.1875zM364.6227 33.9624c-1.7676 5.4434-7.0762 9.7696-12.0889 9.7696H322.0006l-6.1865 19.707H288.5328L308.2926 0h57.9482c4.8692 0 7.5274 4.3262 5.89651 9.7735L364.6227 33.9624M341.027 7.6934h-7.8096L324.51331 35.562h7.81439c2.5127 0 5.1573-2.2422 5.9004-4.8071l5.7569-18.2578C344.7164 9.9297 343.38731 7.6934 341.027 7.6934z"/><path class="b" d="M37.669,8.74137c-.22628,2.97121,1.03879,4.16927,2.82487,2.671,1.78491-1.497,3.41264-5.12032,3.63831-8.09485C44.35455.34448,43.08978-.85026,41.307.6435,39.52206,2.14471,37.89254,5.76892,37.669,8.74137Z"/><path class="a" d="M44.06815,17.41912C45.35249,12.709,54.07326,7.54392,67.68358,1.60986,63.20149,2.27757,37.6942,10.891,32.17332,20.9538c-.64635,1.18661.02468,2.232,2.16867,2.77982,14.735,3.78976,19.114,9.73489,2.26806,12.58057C18.26436,39.40559-8.7234,44.65994,2.7495,63.6382c1.933-7.213,9.09851-12.74912,9.09851-12.74912s6.474-6.7502,30.264-12.98532c1.98086-.51989,3.82072-1.07215,5.5167-1.60761,5.13354-1.9622,5.57768-8.29288-.92975-11.81254C43.41428,22.70683,43.55521,19.28822,44.06815,17.41912Z"/><path class="b" d="M54.5393 59.76789S34.8729 46.178 44.99758 38.21448C44.05855 47.69607 54.5393 59.76789 54.5393 59.76789zM425.82278 7.72867H407.1403c-1.8597 0-4.22612 2.23643-4.96581 4.79546l-4.79263 15.39036H415.239l-2.33321 7.66557H395.0477L386.45153 63.439H364.838L381.33009 9.814C383.05623 4.372 387.5423.04631 391.5077.04631h36.783zM436.895 63.439L415.297 63.439 434.82.046 456.428.046 436.895 63.439zM508.394 7.729L496.01 7.729 478.823 63.439 457.223 63.439 474.42 7.729 461.932 7.729 464.387.046 510.718.046 508.394 7.729zM551.92752 63.439H530.33794l15.72485-50.91487C546.81248 9.814 546 7.72867 544.01953 7.72867h-6.18807L520.64214 63.439h-21.6073L518.55945.04631h45.88907c3.85316 0 5.7 4.32572 4.07426 9.76768zM620.60029 7.72867H601.91215c-1.86423 0-4.21876 2.23643-4.95015 4.79546l-4.8 15.39036h17.87092l-2.35076 7.66557H589.82146l-4.673 15.36471c-.86118 2.70995.0598 4.80829 2.04778 4.80829h18.66947l-2.439 7.68594H566.74325c-3.95918 0-5.79039-4.34214-4.06331-9.78428L576.10383 9.814C577.842 4.372 582.31134.04631 586.28052.04631h36.79034zM673.492 7.72867H651.89679c-1.97477 0-4.2261 2.23643-5.08465 4.79546l-3.21836 10.56906c-.73139 2.56072.17488 4.8213 2.0393 4.8213h17.04105c3.87617 0 5.6889 4.31271 4.09351 9.7475l-4.952 15.99273c-1.74634 5.44214-6.21033 9.78428-10.1748 9.78428h-41.221l2.44659-7.68594h23.12422c1.98591 0 4.22065-2.09834 4.97053-4.80829l3.327-10.55623c.74062-2.5645-.1547-4.80848-2.148-4.80848h-16.9288c-3.86146 0-5.69814-4.322-4.08236-9.75655L626.08281 9.814c1.61578-5.442 6.20674-9.76768 10.06254-9.76768h39.80986zM727.41905 7.72867H705.824c-1.98609 0-4.22064 2.23643-5.0773 4.79546l-3.224 10.56906c-.74064 2.56072.16941 4.8213 2.05231 4.8213h17.02634c3.86862 0 5.711 4.31271 4.08236 9.7475l-4.95939 15.99273c-1.7133 5.44214-6.179 9.78428-10.16008 9.78428H664.34876l2.44471-7.68594h23.12422c1.98968 0 4.23725-2.09834 4.96675-4.80829l3.33645-10.55623c.74611-2.5645-.18242-4.80848-2.15173-4.80848h-16.9454c-3.84844 0-5.69079-4.322-4.075-9.75655L680.00267 9.814c1.612-5.442 6.203-9.76768 10.06424-9.76768h39.81533zM744.37917 33.18327c-.70385 2.058-2.50734 3.63848-4.088 3.63848h-8.64579c-1.61389 0-2.36735-1.5805-1.649-3.63848L731.741 27.5238c.69461-2.06137 2.47979-3.63847 4.09368-3.63847h8.63843c1.59352 0 2.33774 1.5771 1.74086 3.63847zM805.93686 24.379c-1.65068 5.27274-6.08129 8.832-10.13253 10.71848L771.70008 45.99462c-2.10759.94136-4.11746 2.24926-4.99449 4.94827l-1.51428 4.82488h30.81205L793.52 63.439H742.69151l6.60272-20.8029c1.649-5.28368 5.77738-7.71367 9.88389-9.613L782.319 22.61421c2.10757-.958 4.09348-2.24021 4.99258-4.93544l1.64332-5.138c.76271-2.56261-.07734-4.79923-1.84044-4.79923H761.97277l2.4281-7.67312H806.8986c3.82448 0 5.36291 4.3146 3.714 9.76222zM852.14117 63.439H831.41562l6.30616-19.68289h-26.0332c-2.24586 0-3.27379-2.54959-2.23662-5.9615L821.46364.06838h20.78817L831.56672 33.68263c-.44219 1.2398.04415 2.38754.9174 2.38754h7.64539L851.54806.06838h20.744zM890.588 38.449L868.104 38.449 870.791 28.821 893.393 28.821 890.588 38.449zM942.8493 9.97812L910.88762 63.439H889.43614l31.14372-51.22256c1.27487-1.91234 1.157-4.47494-.65029-4.47494H897.06511L899.48039.06838h41.83613c2.79654 0 4.00144 3.18346 2.78012 7.36354A14.09748 14.09748 0 01942.8493 9.97812zM952.02006.9151c-.73631-.0176-.85741-.0176-1.60541-.0176-.0157.8706-.0157 1.0112-.0157 1.7861 0 2.189.0332 3.0508.0606 3.5747l-.0547.0606c-.4941 0-.5215 0-1 .0258l-.0449-.0605c.0449-1.2212.0508-2.4409.0508-3.6611 0-.8897-.01569-1.3511-.0235-1.7256-.7597.0068-.8457.0068-1.623.0346l-.0528-.0615c.0157-.3061.0157-.3398.0332-.644l.045-.063c.6289 0 1.6308 0 2.2558-.0073.6719 0 1.3438-.0098 2.0157-.0186l.04291.0606c-.02341.3051-.03321.4018-.03321.6538zM959.46735.1983c.043 2.0244.1133 4.038.2266 6.06l-.043.0606c-.4355 0-.4883.0088-.9434.0258l-.0507-.0605c.0078-.9849 0-1.29-.0274-2.2495l-.0156-.9224c0-.6211-.00979-1.9551-.00979-2.2861-.13861.5068-.26951.9678-.63671 2.188l-.3984 1.2651c-.3223.9668-.4278 1.3067-.62889 1.979l-.05281.0606c-.4687 0-.5156 0-1.0117.0258l-.0527-.0605c-.043-.147-.0879-.2964-.1289-.4385-.0703-.2695-.4532-1.5664-.541-1.853l-.3497-1.2202c-.3496-1.2481-.3808-1.3897-.5058-1.9463-.0078.8735-.0137 1.062-.043 1.9355l-.0605 1.5611c-.0371 1.0283-.0371 1.2534-.045 1.9355l-.04289.0606c-.418 0-.47071 0-.836.0258l-.04291-.0605c.0175-.1753.0332-.3569.0527-.5327.0859-1.0366.1191-2.0737.1836-3.1118.084-1.5513.0937-1.647.0937-2.4131l.0528-.063c.6367 0 .7949-.0073 1.3437-.0259l.0586.0606c.1582.6992.3047 1.2036.4805 1.7968l.9492 3.5215 1.1074-3.6338c.3496-1.1347.3672-1.1777.4981-1.6562l.0508-.063c.6367 0 .71681-.0073 1.3164-.0259z"/></svg>