<svg xmlns="http://www.w3.org/2000/svg" width="970.939" height="105.15"><path data-name="SNAPNATION logo" d="M1443.7,3476.04l-66.39-75.8v75.8h-10.39v-100.1h2.19l66.93,76.73v-76.73h9.92v100.1h-2.26Zm-147.03,2.52q-22.365,0-37.76-15.24a49.994,49.994,0,0,1-15.4-36.89,53.165,53.165,0,0,1,7.01-26.74,50.943,50.943,0,0,1,19.13-19.3,51.573,51.573,0,0,1,26.2-6.97q22.845,0,38.24,15.17t15.4,37.36q0,21.99-15.36,37.3T1296.67,3478.56Zm36.84-74.19a41.585,41.585,0,0,0-15.71-15.43,42.712,42.712,0,0,0-21.51-5.79,42.957,42.957,0,0,0-36.77,21.39,43.21,43.21,0,0,0-5.62,21.86,42.2,42.2,0,0,0,42.39,42.43,43.3,43.3,0,0,0,21.68-5.65,40.634,40.634,0,0,0,15.54-15.46,43.321,43.321,0,0,0,5.58-21.8A42.212,42.212,0,0,0,1333.51,3404.37Zm-118.64-28.43h10.05v100.1h-10.05v-100.1Zm-43.89,100.1h-10.26v-90.3H1138.3v-9.8h55.11v9.8h-22.43v90.3Zm-64.96-32.94h-43.33l-15.66,32.94h-11.22l47.52-100.1h2.46l46.9,100.1h-10.85Zm-21.5-45.9-17.23,36.24h34.38Zm-135.738,3.04v75.8H938.39v-100.1h2.188l66.932,76.73v-76.73h9.91v100.1h-2.25Zm-48.332,31.84q-5.538,1.56-20.169,1.57v42.39H861.137v-100.1h20.306q16.476,0,23.759,3.02a24.168,24.168,0,0,1,11.486,9.8,30.186,30.186,0,0,1,4.2,16.23q0,10.485-5.5,17.43A28.58,28.58,0,0,1,900.45,3432.08Zm-2.6-35.59q-3.282-1.98-12.17-1.98h-5.4v20.56h6.085c4.786,0,8.112-.35,9.982-1.03a8.865,8.865,0,0,0,4.41-3.38,9.879,9.879,0,0,0,1.606-5.7Q902.364,3399.155,897.852,3396.49Zm-84.813,58.93H772l-8.182,20.62h-19.9l38.784-100.1h19.415l38.681,100.1h-19.9Zm-20.5-52.94-13.493,34.36h26.906Zm-130.478,7.89v65.67H642.913v-100.1h18.363l43.033,65.87v-65.87h19.143v100.1H705.036Zm-60.125,5.44q10.957,9.135,13.287,11.51a39.9,39.9,0,0,1,8.253,11.19,27.842,27.842,0,0,1,2.431,11.67q0,12.315-8.556,20.35t-22.312,8.03a33.332,33.332,0,0,1-18.719-5.24q-7.974-5.235-13.655-16.47l16.092-9.66q7.259,13.26,16.707,13.27a12.317,12.317,0,0,0,8.286-2.86,8.5,8.5,0,0,0,3.355-6.6,11.376,11.376,0,0,0-2.534-6.81q-2.535-3.39-11.163-10.41-16.437-13.335-21.232-20.59a26.057,26.057,0,0,1-4.793-14.46,23.6,23.6,0,0,1,7.974-17.86,27.723,27.723,0,0,1,19.68-7.45,31.094,31.094,0,0,1,14.341,3.47q6.81,3.465,14.751,12.66L609.946,3402q-7.467-10.35-15.205-10.34a9.314,9.314,0,0,0-6.164,2,5.843,5.843,0,0,0-2.4,4.53,7.7,7.7,0,0,0,1.713,4.76Q590.22,3405.95,601.931,3415.81Zm-68.919,14.09H546.62v13.54H530.871l-4.821,32.6H512.367l4.821-32.6H504.065l-4.756,32.6H485.63l4.866-32.6H475.037V3429.9h17.482l2.047-12.79H479.345v-13.54h17.1l4.5-30.15h13.331l-4.191,30.15h13l4.459-30.15h13.682l-4.459,30.15h13.749v13.54H534.766Zm-25.1-12.79-1.866,12.79h13.15l1.892-12.79H507.907Z" transform="translate(-475.031 -3373.41)" fill="#e5e5e5" fill-rule="evenodd"/></svg>